<?xml version="1.0" encoding="UTF-8"?>
<!DOCTYPE svg PUBLIC "-//W3C//DTD SVG 1.1//EN" "http://www.w3.org/Graphics/SVG/1.1/DTD/svg11.dtd">
<!-- Creator: CorelDRAW 2020 (64-Bit) -->
<svg xmlns="http://www.w3.org/2000/svg" xml:space="preserve" width="30px" height="33px" version="1.1" style="shape-rendering:geometricPrecision; text-rendering:geometricPrecision; image-rendering:optimizeQuality; fill-rule:evenodd; clip-rule:evenodd"
viewBox="0 0 3.138 3.452"
 xmlns:xlink="http://www.w3.org/1999/xlink"
 xmlns:xodm="http://www.corel.com/coreldraw/odm/2003">
 <defs>
  <style type="text/css">
   <![CDATA[
    .fil1 {fill:#FEFEFE}
    .fil0 {fill:#E8542B}
   ]]>
  </style>
 </defs>
 <g id="图层_x0020_1">
  <metadata id="CorelCorpID_0Corel-Layer"/>
  <g id="_2494840671424">
   <path class="fil0" d="M3.138 1.565l-0.001 0.014c-0.002,0.036 -0.004,0.071 -0.008,0.106 -0.094,0.893 -0.783,1.61 -1.656,1.767l0 -0.421c-0.822,-0.048 -1.473,-0.708 -1.473,-1.514 0,-0.838 0.703,-1.517 1.569,-1.517 0.867,0 1.569,0.679 1.569,1.517 0,0.016 0,0.032 -0.001,0.048l0.001 0z"/>
   <g>
    <path class="fil1" d="M2.27 1.253l-0.578 0.662c-0.042,0.049 -0.036,0.126 0.012,0.169l0 0c0.048,0.044 0.12,0.037 0.163,-0.012l0.381 -0.438 0 0.521c0,0.066 0.052,0.12 0.116,0.12l0 0c0.063,0 0.115,-0.054 0.115,-0.12l0 -0.833c0,-0.067 -0.052,-0.121 -0.115,-0.121l0 0c-0.039,0 -0.074,0.021 -0.094,0.052z"/>
    <path class="fil1" d="M0.73 0.769c0.045,-0.02 0.099,-0.009 0.134,0.031l0.629 0.731 0.63 -0.732c0.042,-0.049 0.115,-0.055 0.163,-0.012l0 0c0.047,0.044 0.054,0.121 0.011,0.17l-0.708 0.822c-0.006,0.008 -0.012,0.016 -0.02,0.023l0 0c-0.048,0.043 -0.12,0.037 -0.163,-0.012l-0.516 -0.6 0 0.959c0,0.066 -0.052,0.12 -0.116,0.12l0 0c-0.063,0 -0.115,-0.054 -0.115,-0.12l0 -1.269c0,-0.05 0.029,-0.093 0.071,-0.111z"/>
   </g>
  </g>
 </g>
</svg>
